<?xml version="1.0" encoding="UTF-8"?>
<?xml-stylesheet type="text/css" href="svg.css"?>
<svg id="logo" xmlns="http://www.w3.org/2000/svg"
  viewBox="0 0 468.92 74.42">
  <path class="marley" id="m"
    d="m80.61,32.6c-.72,1.26-1.94,2.64-3.67,4.16l1.08-4.71c.8-3.5,1.21-5.99,1.21-7.45,0-3.11-1.09-5.53-3.28-7.26-2.1-1.65-4.87-2.47-8.32-2.47-3.05,0-6.04.67-8.97,2-3.02,1.36-5.38,3.15-7.07,5.37-1.09-4.92-4.95-7.38-11.56-7.38-5,0-9.78,2.01-14.32,6.04l1.16-5.06h-11.65l-4.18,18.12c-4.72,2.35-8.4,6.03-11.04,11.02h6.17c.72-1.26,1.8-2.55,3.23-3.88l-3.75,16.4h12.38l4.44-19.26c4.11.13,8.86.76,14.23,1.88l-4.01,17.38h12.38l3.41-14.71c5.29,1.12,10.05,1.75,14.28,1.88l-2.98,12.83h12.38l3.19-13.77c5.03-2.41,8.84-6.12,11.43-11.14h-6.17Zm-14.97-.55l-1.47,6.47c-4.23-.16-8.99-.78-14.28-1.88,1.12-4.32,2.46-7.41,4.01-9.3,2.42-2.96,5.16-4.43,8.24-4.43s4.57,1.24,4.57,3.73c0,.44-.36,2.25-1.08,5.41h0Zm-27.17.27l-.39,1.61c-5.23-1.1-9.91-1.71-14.02-1.84.72-1.99,1.67-3.67,2.85-5.06,2.3-2.75,4.95-4.12,7.94-4.12s4.61,1.26,4.61,3.77c0,1.02-.33,2.9-.99,5.65h0Z" />
  <path class="marley"
    d="m100.24,24.15c1.28-.82,3.03-1.24,5.24-1.24,2.1,0,3.68.41,4.74,1.22,1.06.81,1.6,1.82,1.6,3.02,0,.94-.26,2.2-.78,3.77-1.98.63-5.92,1.16-11.82,1.61-6.99.5-11.84,1.94-14.56,4.32-2.72,2.38-4.08,5.56-4.08,9.53,0,3.56,1.24,6.47,3.71,8.73,2.47,2.26,5.61,3.39,9.4,3.39,2.39,0,4.76-.49,7.12-1.47,2.36-.98,4.44-2.39,6.25-4.22.11,1.62.42,3.19.91,4.71h12.03c-.69-2.17-1.04-4.14-1.04-5.92,0-1.99.6-5.47,1.81-10.44,1.47-6.02,2.32-9.73,2.57-11.14.24-1.41.37-2.75.37-4,0-3.11-1.41-5.75-4.23-7.9-2.82-2.16-7.17-3.24-13.07-3.24s-10.22,1.05-13.65,3.14c-3.44,2.09-5.84,5-7.22,8.71l12.08.94c.46-1.52,1.33-2.69,2.61-3.51Zm8.82,15.44c-.63,2.75-1.36,4.77-2.18,6.06s-2.06,2.35-3.71,3.18c-1.65.82-3.41,1.24-5.28,1.24-1.7,0-3.06-.45-4.1-1.35-1.04-.9-1.55-2.01-1.55-3.31,0-1.59.68-2.86,2.03-3.81,1.9-1.31,5.95-2.3,12.16-2.98,1.24-.16,2.23-.33,2.98-.51l-.34,1.49Z" />
  <path class="marley"
    d="m124.18,57.51h12.38l3.02-13.06c1.21-5.31,2.43-9.19,3.67-11.63,1.24-2.45,2.95-4.4,5.15-5.86,2.2-1.46,4.36-2.2,6.49-2.2,1.26,0,2.46.18,3.58.55l4.74-9.22c-2.04-.81-3.95-1.22-5.74-1.22-5.03,0-9.7,3.02-14.02,9.06l1.85-8.08h-11.56l-9.58,41.66Z" />
  <path class="marley" 
    d="m167.13,57.51L180.32,0h-12.34l-13.24,57.51h12.38Z" />
  <path class="marley"
    d="m220.42,32.84c0-5.67-1.65-10.09-4.96-13.24-3.31-3.15-7.76-4.73-13.37-4.73-8.8,0-15.57,3.01-20.31,9.02-3.48,4.45-5.22,9.52-5.22,15.22s1.93,10.52,5.78,14.06c3.85,3.54,8.86,5.32,15.01,5.32,4.49,0,8.53-1.01,12.14-3.04,3.61-2.03,6.49-5.07,8.65-9.12l-11.08-1.69c-2.3,3.87-5.51,5.81-9.62,5.81-2.5,0-4.62-.85-6.36-2.55-1.74-1.7-2.61-3.94-2.61-6.71,0-.24.01-.57.04-1.02h31.05c.57-2.17.86-4.62.86-7.34h0Zm-30.67.47c.72-3.43,2.09-6.02,4.12-7.77,2.03-1.75,4.32-2.63,6.88-2.63s4.6.77,6.12,2.31c1.52,1.54,2.29,3.86,2.29,6.94,0,.26-.01.64-.04,1.14h-19.37Z" />
  <path class="marley"
    d="m231.49,57.51c-2.44,5.23-5.56,7.85-9.36,7.85-1.41,0-2.86-.2-4.36-.59l-1.08,8.4c3.28.84,6.22,1.26,8.84,1.26s4.91-.43,6.79-1.29c1.88-.86,3.49-2.05,4.83-3.57,1.34-1.52,3.17-4.17,5.5-7.96l28.29-45.74h-13.11l-10.96,18.48c-2.82,4.73-5.03,9.23-6.64,13.5-.09-2.14-.52-5.88-1.29-11.22l-3.11-20.75h-12.34l7.98,41.66Z" />
  <path class="marley"
    d="m275.25,10.2h12.38l2.33-10.2h-12.38l-2.33,10.2Zm-10.87,47.31h12.38l9.58-41.66h-12.38l-9.58,41.66Z" />
  <path class="marley"
    d="m290.26,55.18c3.61,2.21,8.72,3.31,15.33,3.31s11.79-1.45,15.44-4.35c3.65-2.9,5.48-6.33,5.48-10.28,0-3.06-1.44-5.67-4.31-7.85-2.04-1.54-6.08-3.11-12.12-4.71-3.91-1.05-6.23-1.78-6.94-2.2-1.15-.68-1.73-1.54-1.73-2.59s.57-1.92,1.7-2.71c1.14-.78,3-1.18,5.59-1.18s4.8.51,6.64,1.53c1.35.76,2.33,1.9,2.93,3.41l11.43-1.8c-.81-3.35-2.72-6-5.74-7.96-3.02-1.96-7.48-2.94-13.37-2.94-7.42,0-13.01,1.66-16.78,4.98-2.7,2.38-4.05,5.22-4.05,8.51s1.39,5.96,4.18,8c1.78,1.31,6.41,3.09,13.89,5.34,2.79.84,4.5,1.54,5.13,2.12.6.6.91,1.28.91,2.04,0,1.12-.59,2.08-1.77,2.86-1.7,1.15-3.95,1.73-6.77,1.73s-4.89-.48-6.47-1.43c-1.58-.95-2.9-2.58-3.97-4.88l-11.99,1.73c1.29,4,3.74,7.11,7.35,9.32Z" />
  <path class="marley" 
    d="m329.56,57.51h12.25l2.5-10.87h-12.25l-2.5,10.87Z" />
  <path class="marley"
    d="m348.95,57.51h12.38l4.4-19.14c.78-3.32,1.34-5.45,1.68-6.39.78-2.01,1.7-3.66,2.78-4.94,1.08-1.28,2.34-2.29,3.77-3.02,1.44-.73,2.83-1.1,4.18-1.1,1.44,0,2.57.35,3.39,1.06.82.71,1.23,1.61,1.23,2.71,0,.86-.33,2.75-.99,5.65l-5.78,25.19h12.38l4.36-18.91c1.24-5.39,2.73-9.14,4.49-11.26,2.42-2.96,5.16-4.43,8.24-4.43,1.52,0,2.67.33,3.43,1,.76.67,1.14,1.58,1.14,2.73,0,.42-.36,2.22-1.08,5.41l-5.87,25.46h12.38l5.87-25.46c.8-3.53,1.21-6.02,1.21-7.45,0-2.93-1.02-5.28-3.06-7.06-2.04-1.78-4.89-2.67-8.54-2.67-3.19,0-6.27.71-9.23,2.12-2.96,1.41-5.23,3.16-6.81,5.26-.52-2.3-1.71-4.11-3.58-5.41-1.87-1.31-4.53-1.96-7.98-1.96-5,0-9.78,2.01-14.32,6.04l1.16-5.06h-11.65l-9.58,41.66Z" />
  <path class="marley"
    d="m468.92,32.84c0-5.67-1.65-10.09-4.96-13.24-3.31-3.15-7.76-4.73-13.37-4.73-8.8,0-15.57,3.01-20.31,9.02-3.48,4.45-5.22,9.52-5.22,15.22s1.93,10.52,5.78,14.06c3.85,3.54,8.86,5.32,15.01,5.32,4.49,0,8.53-1.01,12.14-3.04,3.61-2.03,6.49-5.07,8.65-9.12l-11.08-1.69c-2.3,3.87-5.51,5.81-9.62,5.81-2.5,0-4.62-.85-6.36-2.55-1.74-1.7-2.61-3.94-2.61-6.71,0-.24.01-.57.04-1.02h31.05c.57-2.17.86-4.62.86-7.34h0Zm-30.67.47c.72-3.43,2.09-6.02,4.12-7.77,2.03-1.75,4.32-2.63,6.88-2.63s4.6.77,6.12,2.31c1.52,1.54,2.29,3.86,2.29,6.94,0,.26-.01.64-.04,1.14h-19.37Z" />
</svg>