<?xml version="1.0" encoding="UTF-8"?>
<svg id="Layer_1" data-name="Layer 1" xmlns="http://www.w3.org/2000/svg" viewBox="0 0 390.34 204.99">
  <defs>
    <style>
      .cls-1 {
        fill: none;
        stroke-width: 0px;
        animation: show 1s ease forwards 8.2s;
      }

      @keyframes show {
        to {
          fill: white;
        }
      }
    </style>
  </defs>
  <path class="cls-1" d="m332.67,81.36c5.17,4.15,11.74,6.23,19.72,6.23,10.64,0,19.32-3.63,26.05-10.88,4.93-5.3,7.4-11.12,7.4-17.44,0-3.32-.94-6.5-2.83-9.54-1.89-3.04-4.83-5.52-8.81-7.43,5.02-1.68,8.96-4.31,11.84-7.9,2.87-3.59,4.31-7.61,4.31-12.05,0-6.12-2.25-11.38-6.75-15.77-4.5-4.39-11.09-6.58-19.75-6.58s-15.57,2.54-21.36,7.61c-3.82,3.39-6.8,8.25-8.94,14.57l16.86,3.04c1.24-4.29,2.92-7.32,5.02-9.1,2.1-1.77,4.48-2.66,7.14-2.66,2.83,0,5.11.8,6.85,2.4,1.74,1.6,2.61,3.78,2.61,6.55,0,3.9-1.29,6.99-3.86,9.27-2.57,2.28-6.33,3.42-11.26,3.42-.6,0-1.22-.04-1.87-.12l-3.22,13.99c1.03-.16,2.02-.23,2.96-.23,3.77,0,6.78,1.02,9.01,3.07,2.23,2.05,3.35,4.83,3.35,8.34,0,4.02-1.38,7.31-4.15,9.89-2.77,2.57-6.25,3.86-10.45,3.86-3.17,0-5.72-.88-7.62-2.63-1.91-1.76-3.23-4.92-3.96-9.48l-17.69,1.93c1.11,7.61,4.26,13.49,9.42,17.64Z"/>
  <path class="cls-1" d="m317.76,106.79c-2.83,4.95-7.65,10.41-14.45,16.39l4.25-18.56c3.17-13.81,4.76-23.61,4.76-29.38,0-12.27-4.31-21.8-12.92-28.61-8.28-6.5-19.21-9.74-32.81-9.74-12.02,0-23.8,2.63-35.36,7.89-11.9,5.36-21.2,12.42-27.88,21.19-4.31-19.38-19.5-29.07-45.56-29.07-19.72,0-38.54,7.94-56.45,23.82l4.59-19.95h-45.9l-16.49,71.45c-18.59,9.28-33.1,23.76-43.52,43.45h24.31c2.83-4.95,7.08-10.05,12.75-15.31l-14.79,64.64h48.8l17.51-75.93c16.21.52,34.91,2.99,56.11,7.42l-15.81,68.51h48.8l13.43-57.99c20.85,4.43,39.61,6.91,56.28,7.42l-11.73,50.57h48.8l12.58-54.28c19.83-9.48,34.85-24.12,45.06-43.92h-24.31Zm-59-2.17l-5.78,25.52c-16.66-.62-35.42-3.09-56.28-7.42,4.42-17.01,9.69-29.23,15.81-36.65,9.52-11.65,20.34-17.47,32.47-17.47s18.02,4.9,18.02,14.69c0,1.75-1.42,8.87-4.25,21.34h0Zm-107.11,1.08l-1.53,6.34c-20.63-4.33-39.05-6.75-55.26-7.27,2.83-7.83,6.57-14.48,11.22-19.95,9.07-10.83,19.49-16.24,31.28-16.24s18.19,4.95,18.19,14.85c0,4.02-1.3,11.44-3.91,22.27h0Z"/>
</svg>